<?xml version="1.0" encoding="UTF-8"?>
<svg width="322px" height="75px" viewBox="0 0 322 75" version="1.1" xmlns="http://www.w3.org/2000/svg" xmlns:xlink="http://www.w3.org/1999/xlink">
    <!-- Generator: Sketch 51.3 (57544) - http://www.bohemiancoding.com/sketch -->
    <title>logo</title>
    <desc>Created with Sketch.</desc>
    <defs></defs>
    <g id="Page-1" stroke="none" stroke-width="1" fill="none" fill-rule="evenodd">
        <path d="M0,1.6775514 L22.8566379,1.6775514 C35.6479673,1.6775514 41.5193973,7.6188793 41.5193973,16.4260242 C41.5193973,21.0392905 39.7020499,24.6739852 36.2770491,26.5612306 C40.6806216,28.3785779 43.5464385,32.2928645 43.5464385,38.2341924 C43.5464385,47.6005211 37.9546005,54.1010328 23.5556176,54.1010328 L0,54.1010328 L0,1.6775514 Z M14.8183707,33.1316402 L14.8183707,41.7989892 L23.2760257,41.7989892 C27.2602103,41.7989892 28.6581698,40.1214378 28.6581698,37.4653147 C28.6581698,34.6693957 27.1903123,33.1316402 23.2760257,33.1316402 L14.8183707,33.1316402 Z M14.8183707,14.049493 L14.8183707,22.0877602 L22.3673521,22.0877602 C25.303067,22.0877602 26.7709245,20.4801067 26.7709245,18.0336776 C26.7709245,15.5872485 25.442863,14.049493 22.2275561,14.049493 L14.8183707,14.049493 Z M45.9828822,19.1520452 L58.2150278,19.1520452 L58.2150278,24.8836792 C60.0323752,20.7596986 63.5971719,18.5229634 67.9308464,18.5229634 L69.6782957,18.5229634 L69.6782957,30.8250071 L65.6941112,30.8250071 C62.0594164,30.8250071 59.6129873,33.4811301 59.6129873,37.1857228 L59.6129873,54.1010328 L45.9828822,54.1010328 L45.9828822,19.1520452 Z M71.6454244,19.1520452 L85.2056316,19.1520452 L85.2056316,54.1010328 L71.6454244,54.1010328 L71.6454244,19.1520452 Z M78.425528,0 C83.1086923,0 86.1842032,2.93571496 86.1842032,7.12959347 C86.1842032,11.323472 83.1086923,14.2591869 78.425528,14.2591869 C73.8122616,14.2591869 70.6668527,11.323472 70.6668527,7.12959347 C70.6668527,2.93571496 73.8122616,0 78.425528,0 Z M121.472695,33.900518 L108.681366,33.900518 C108.471672,31.7336807 107.14361,30.1959253 104.697181,30.1959253 C101.62167,30.1959253 100.014017,32.5724564 100.014017,36.626539 C100.014017,40.9602135 101.901262,43.1270507 104.627283,43.1270507 C107.003814,43.1270507 108.54157,41.7989892 108.751264,39.422458 L121.612491,39.422458 C121.053307,48.8586847 114.972183,54.8000126 104.417589,54.8000126 C93.0941172,54.8000126 86.6635035,47.810215 86.6635035,36.626539 C86.6635035,25.9321488 93.5834031,18.4530655 104.487487,18.4530655 C114.832388,18.4530655 120.843613,24.9535771 121.472695,33.900518 Z M122.790771,1.6775514 L136.350978,1.6775514 L136.350978,31.3841909 L144.529041,19.1520452 L160.256086,19.1520452 L147.884144,34.1102119 L161.723943,54.1010328 L146.556083,54.1010328 L139.426489,42.8474588 L136.350978,45.6433778 L136.350978,54.1010328 L122.790771,54.1010328 L122.790771,1.6775514 Z M175.463888,18.4530655 C186.158278,18.4530655 193.70726,25.0933731 193.70726,36.626539 C193.70726,48.019909 186.08838,54.8000126 175.463888,54.8000126 C164.769498,54.8000126 157.220517,48.1597049 157.220517,36.626539 C157.220517,25.303067 164.769498,18.4530655 175.463888,18.4530655 Z M175.463888,30.1260273 C172.248581,30.1260273 170.57103,32.3627625 170.57103,36.626539 C170.57103,40.8204175 172.248581,43.1270507 175.463888,43.1270507 C178.679195,43.1270507 180.356746,40.8903155 180.356746,36.626539 C180.356746,32.4326605 178.609297,30.1260273 175.463888,30.1260273 Z M196.093776,1.6775514 L209.653983,1.6775514 L209.653983,54.1010328 L196.093776,54.1010328 L196.093776,1.6775514 Z M224.74196,31.3142929 L212.509815,31.1744969 C213.34859,22.9964338 219.779204,18.4530655 229.005737,18.4530655 C239.560331,18.4530655 244.872577,23.5556176 244.872577,32.7821504 L244.872577,41.2398054 C244.872577,43.0571527 245.781251,43.9658264 247.319006,43.9658264 L249.066456,43.9658264 L249.346048,54.1010328 C247.738394,54.4505227 245.851149,54.7301146 243.963904,54.7301146 C239.700127,54.7301146 236.694514,53.1923591 235.366453,49.6974604 C233.199615,52.9826652 229.564921,54.8000126 223.483797,54.8000126 C215.864918,54.8000126 211.111855,51.0255219 211.111855,44.5250102 C211.111855,38.0244985 215.44553,33.900518 226.629206,33.2714362 C230.683288,32.9918443 232.36084,32.3627625 232.36084,30.964803 C232.36084,29.5668435 231.242472,28.5882719 228.796043,28.5882719 C226.629206,28.5882719 225.231246,29.6367415 224.74196,31.3142929 Z M232.221044,41.1699074 L232.221044,39.2127641 C231.31237,39.7719479 229.844513,40.1214378 227.817471,40.2612337 C225.021552,40.4010297 223.903185,41.4494993 223.903185,42.8474588 C223.903185,44.3852142 225.09145,45.2938879 227.398083,45.2938879 C230.403696,45.2938879 232.221044,43.6163365 232.221044,41.1699074 Z M286.152324,18.4530655 L286.152324,28.7979658 L280.490588,28.7979658 C281.189568,29.7765374 281.539058,31.4540888 281.539058,33.1316402 C281.539058,39.35256 275.527832,45.154092 265.322728,45.154092 C264.623748,45.154092 263.924768,45.154092 263.295686,45.084194 C263.016094,45.5035818 262.876299,45.9928677 262.876299,46.5520515 C262.876299,47.950011 263.715074,48.5091948 265.322728,48.5091948 L271.054362,48.5091948 C279.721711,48.5091948 284.824263,52.8428692 284.824263,60.1122587 C284.824263,67.66124 278.044159,74.2316497 264.344156,74.2316497 C252.531398,74.2316497 246.729866,69.3387914 246.729866,61.6500141 C246.729866,57.5959316 249.036499,54.1010328 252.81099,52.2137875 C251.552827,50.8857259 251.063541,49.1382766 251.063541,47.2510312 C251.063541,45.084194 251.972214,43.1270507 253.789562,41.7989892 C250.714051,39.422458 249.106397,35.9275592 249.106397,31.8734767 C249.106397,24.3943933 254.348746,18.4530655 264.973238,18.4530655 L286.152324,18.4530655 Z M269.167116,57.8755235 L262.666605,57.8755235 C260.709461,57.8755235 259.591094,58.9938911 259.591094,60.6714425 C259.591094,62.6285858 261.338543,63.8168513 265.043136,63.8168513 C269.935994,63.8168513 272.032933,62.4188918 272.032933,60.1821566 C272.032933,58.7841971 270.984464,57.8755235 269.167116,57.8755235 Z M265.322728,28.30868 C263.085992,28.30868 261.827829,29.7765374 261.827829,31.8734767 C261.827829,34.0403139 263.085992,35.4382734 265.322728,35.4382734 C267.489565,35.4382734 268.817626,34.1102119 268.817626,31.8734767 C268.817626,29.8464354 267.699259,28.30868 265.322728,28.30868 Z M322,39.9816418 L299.772444,39.9816418 C299.842342,42.9173568 301.729587,44.7347041 304.525506,44.7347041 C306.762241,44.7347041 308.090303,43.7561325 308.649487,42.358173 L321.720408,43.5464385 C319.553571,51.2352158 313.262753,54.8000126 304.245914,54.8000126 C293.132136,54.8000126 286.282135,48.0898069 286.282135,36.626539 C286.282135,25.8622508 293.34183,18.4530655 304.38571,18.4530655 C315.639284,18.4530655 322,25.6525569 322,36.2770491 L322,39.9816418 Z M299.91224,32.7821504 L308.509691,32.7821504 C308.439793,30.3357212 306.971935,28.5882719 304.38571,28.5882719 C301.729587,28.5882719 300.121934,30.3357212 299.91224,32.7821504 Z" id="logo" fill="#544EEC"></path>
    </g>
</svg>